P3
# PPM Colour Example Multiple Pixels Per File Line
# NOTE: A blank line is required at the end of this file that gist has removed.
5 5
255
255 255 255 255 255 255 255 255 255 255 255 255 255 255 255 
255 255 255 0 0 150 255 255 255 0 150 0 255 255 255 
255 255 255 255 255 255 255 255 255 255 255 255 255 255 255 
0 5 0 255 255 255 255 255 255 255 255 255 0 5 0 
255 255 255 0 0 0 0 0 0 0 0 0 255 255 255 
